<?xml version="1.0" encoding="UTF-8"?>
<!DOCTYPE svg PUBLIC "-//W3C//DTD SVG 1.1//EN" "http://www.w3.org/Graphics/SVG/1.1/DTD/svg11.dtd">
<svg xmlns="http://www.w3.org/2000/svg" version="1.1" width="512px" height="512px" style="shape-rendering:geometricPrecision; text-rendering:geometricPrecision; image-rendering:optimizeQuality; fill-rule:evenodd; clip-rule:evenodd" xmlns:xlink="http://www.w3.org/1999/xlink">
<g><path style="opacity:0.994" fill="#070e44" d="M 115.5,20.5 C 208.834,20.3333 302.167,20.5 395.5,21C 437.816,27.3208 467.316,50.1542 484,89.5C 486.945,97.9479 488.945,106.615 490,115.5C 490.667,208.833 490.667,302.167 490,395.5C 483.679,437.816 460.846,467.316 421.5,484C 413.052,486.945 404.385,488.945 395.5,490C 302.167,490.667 208.833,490.667 115.5,490C 73.1835,483.679 43.6835,460.846 27,421.5C 24.0547,413.052 22.0547,404.385 21,395.5C 20.0168,299.807 20.3501,204.141 22,108.5C 29.7824,71.72 50.6157,45.22 84.5,29C 94.6577,25.0468 104.991,22.2135 115.5,20.5 Z"/></g>
<g><path style="opacity:1" fill="#0b4e6b" d="M 117.5,63.5 C 208.501,63.3333 299.501,63.5 390.5,64C 421.312,69.1449 440.146,86.9782 447,117.5C 447.5,127.828 447.666,138.161 447.5,148.5C 319.5,148.5 191.5,148.5 63.5,148.5C 58.4186,118.565 67.4186,94.0652 90.5,75C 98.9,69.4587 107.9,65.6254 117.5,63.5 Z"/></g>
<g><path style="opacity:1" fill="#eceae9" d="M 63.5,191.5 C 191.5,191.5 319.5,191.5 447.5,191.5C 447.667,257.834 447.5,324.168 447,390.5C 441.491,422.676 422.658,441.509 390.5,447C 299.5,447.667 208.5,447.667 117.5,447C 86.9801,440.148 69.1468,421.314 64,390.5C 63.5,324.168 63.3333,257.834 63.5,191.5 Z"/></g>
<g><path style="opacity:1" fill="#080f44" d="M 206.5,255.5 C 218.706,254.017 227.539,258.684 233,269.5C 235.336,276.139 234.67,282.472 231,288.5C 220.652,298.681 210.486,309.014 200.5,319.5C 210.486,329.986 220.652,340.319 231,350.5C 236.064,359.595 235.397,368.262 229,376.5C 219.746,384.637 209.913,385.47 199.5,379C 184,363.5 168.5,348 153,332.5C 147.147,323.748 147.147,315.082 153,306.5C 168.5,291 184,275.5 199.5,260C 201.898,258.476 204.231,256.976 206.5,255.5 Z"/></g>
<g><path style="opacity:1" fill="#080f44" d="M 292.5,255.5 C 299.36,254.966 305.694,256.466 311.5,260C 327,275.5 342.5,291 358,306.5C 363.853,315.082 363.853,323.748 358,332.5C 342.5,348 327,363.5 311.5,379C 298.148,386.948 287.314,384.448 279,371.5C 275.499,364.336 275.832,357.336 280,350.5C 290.348,340.319 300.514,329.986 310.5,319.5C 300.514,309.014 290.348,298.681 280,288.5C 273.553,273.404 277.72,262.404 292.5,255.5 Z"/></g>
</svg>
