<?xml version="1.0" encoding="UTF-8"?>
<!DOCTYPE svg PUBLIC "-//W3C//DTD SVG 1.1//EN" "http://www.w3.org/Graphics/SVG/1.1/DTD/svg11.dtd">
<svg xmlns="http://www.w3.org/2000/svg" version="1.1" width="512px" height="512px" style="shape-rendering:geometricPrecision; text-rendering:geometricPrecision; image-rendering:optimizeQuality; fill-rule:evenodd; clip-rule:evenodd" xmlns:xlink="http://www.w3.org/1999/xlink">
<g><path style="opacity:0.944" fill="#000000" d="M 164.5,-0.5 C 168.833,-0.5 173.167,-0.5 177.5,-0.5C 188.933,3.26585 196.266,10.9325 199.5,22.5C 216.167,22.5 232.833,22.5 249.5,22.5C 252.787,10.881 260.121,3.21437 271.5,-0.5C 276.833,-0.5 282.167,-0.5 287.5,-0.5C 305.554,6.42575 313.554,19.5924 311.5,39C 339.372,55.0335 367.372,70.8668 395.5,86.5C 408.665,75.9163 422.665,74.7496 437.5,83C 442.987,87.6488 446.987,93.3155 449.5,100C 461.5,100.667 473.5,100.667 485.5,100C 480.238,95.8217 479.238,90.8217 482.5,85C 484.459,84.0691 486.459,83.2357 488.5,82.5C 490.541,83.2357 492.541,84.0691 494.5,85C 500.033,91.3628 505.699,97.5295 511.5,103.5C 511.5,107.167 511.5,110.833 511.5,114.5C 505.73,120.771 499.73,126.938 493.5,133C 483,135.833 479.167,132 482,121.5C 483.5,120 485,118.5 486.5,117C 474.167,116.333 461.833,116.333 449.5,117C 442.283,135.278 428.949,142.611 409.5,139C 405.131,137.733 401.297,135.567 398,132.5C 388.833,142.333 379.667,152.167 370.5,162C 383.541,183.251 396.708,204.417 410,225.5C 429.213,221.524 442.38,228.69 449.5,247C 461.833,247.667 474.167,247.667 486.5,247C 481.769,244.044 479.936,239.878 481,234.5C 483.226,230.139 486.726,228.639 491.5,230C 499.068,236.066 505.734,242.9 511.5,250.5C 511.5,253.833 511.5,257.167 511.5,260.5C 505.669,268.497 498.669,275.33 490.5,281C 482.841,281.671 479.674,278.171 481,270.5C 482.458,268.04 484.291,265.873 486.5,264C 474.167,263.333 461.833,263.333 449.5,264C 442.38,282.31 429.213,289.476 410,285.5C 398.035,304.599 386.202,323.766 374.5,343C 383.75,353.958 393.583,364.458 404,374.5C 418.521,368.07 431.521,370.403 443,381.5C 445.564,385.462 447.731,389.629 449.5,394C 461.833,394.667 474.167,394.667 486.5,394C 479.486,388.943 478.819,383.276 484.5,377C 487.634,376.21 490.634,376.543 493.5,378C 499.73,384.062 505.73,390.229 511.5,396.5C 511.5,400.167 511.5,403.833 511.5,407.5C 505.699,413.471 500.033,419.637 494.5,426C 489.222,429.351 484.722,428.518 481,423.5C 479.555,418.277 481.055,414.11 485.5,411C 473.5,410.333 461.5,410.333 449.5,411C 439.475,432.672 423.475,438.672 401.5,429C 399.679,427.257 397.679,425.757 395.5,424.5C 367.372,440.133 339.372,455.967 311.5,472C 310.691,477.417 310.191,482.917 310,488.5C 307.761,491.962 304.594,493.295 300.5,492.5C 298.897,491.404 297.397,490.07 296,488.5C 296.958,480.556 294.792,473.723 289.5,468C 278.346,461.457 269.846,463.957 264,475.5C 262.614,483.89 265.447,490.39 272.5,495C 277.201,495.928 281.868,496.928 286.5,498C 287.399,499.652 288.399,501.152 289.5,502.5C 289.946,506.36 288.613,509.36 285.5,511.5C 280.833,511.5 276.167,511.5 271.5,511.5C 260.094,507.76 252.76,500.093 249.5,488.5C 233.163,488.333 216.83,488.5 200.5,489C 196.225,500.11 188.559,507.61 177.5,511.5C 172.167,511.5 166.833,511.5 161.5,511.5C 143.688,504.715 136.355,491.881 139.5,473C 110.995,456.58 82.3287,440.413 53.5,424.5C 42.8241,433.766 30.8241,435.933 17.5,431C 8.42896,426.768 2.42896,419.935 -0.5,410.5C -0.5,405.167 -0.5,399.833 -0.5,394.5C 8.26551,373.124 23.5988,366.457 45.5,374.5C 55.6825,364.151 65.6825,353.651 75.5,343C 63.4582,323.749 51.2916,304.582 39,285.5C 19.447,289.417 6.28028,282.084 -0.5,263.5C -0.5,258.167 -0.5,252.833 -0.5,247.5C 6.28028,228.916 19.447,221.583 39,225.5C 52.2983,204.401 65.465,183.234 78.5,162C 69.3461,152.179 60.1794,142.345 51,132.5C 35.9967,143.564 21.4967,142.898 7.5,130.5C 3.76164,126.346 1.09497,121.68 -0.5,116.5C -0.5,111.167 -0.5,105.833 -0.5,100.5C 7.22077,81.4712 21.2208,74.3046 41.5,79C 45.899,80.9064 49.899,83.4064 53.5,86.5C 82.3287,70.5866 110.995,54.4199 139.5,38C 138.118,32.1623 138.284,26.3289 140,20.5C 142.15,17.037 145.316,15.7036 149.5,16.5C 151.134,17.9717 152.634,19.6383 154,21.5C 152.067,29.6537 153.901,36.8204 159.5,43C 171.207,49.7278 179.707,46.8945 185,34.5C 186.637,26.2746 183.804,20.1079 176.5,16C 172.101,15.183 167.768,14.183 163.5,13C 162.219,11.5913 161.219,10.0913 160.5,8.5C 159.981,4.54746 161.314,1.54746 164.5,-0.5 Z M 200.5,38.5 C 216.833,38.5 233.167,38.5 249.5,38.5C 250.063,40.91 250.563,43.2433 251,45.5C 242,55.1667 233,64.8333 224,74.5C 214.969,65.8036 206.303,56.8036 198,47.5C 198.209,44.3896 199.042,41.3896 200.5,38.5 Z M 144.5,54.5 C 132.149,76.0287 119.149,97.1953 105.5,118C 90.8187,115.165 76.1521,111.998 61.5,108.5C 61.2229,105.552 61.5562,102.719 62.5,100C 89.7266,84.5554 117.06,69.3887 144.5,54.5 Z M 304.5,54.5 C 332.607,69.7219 360.607,85.2219 388.5,101C 387.565,103.381 387.232,105.881 387.5,108.5C 372.846,111.999 358.18,115.165 343.5,118C 330.248,96.9307 317.248,75.764 304.5,54.5 Z M 261.5,57.5 C 269.969,61.4164 278.803,62.4164 288,60.5C 301.542,81.0801 314.708,101.913 327.5,123C 321.181,124.564 314.848,126.064 308.5,127.5C 296.663,111.957 281.663,107.791 263.5,115C 253.803,105.637 244.47,95.9704 235.5,86C 244.373,76.6297 253.04,67.1297 261.5,57.5 Z M 183.5,58.5 C 184.552,58.3505 185.552,58.5172 186.5,59C 194.803,68.3036 203.469,77.3036 212.5,86C 203.333,95.8333 194.167,105.667 185,115.5C 167.645,107.713 153.478,111.546 142.5,127C 135.67,126.461 129.004,124.961 122.5,122.5C 135,102.167 147.5,81.8333 160,61.5C 165.631,61.5726 171.464,61.4059 177.5,61C 179.723,60.4338 181.723,59.6005 183.5,58.5 Z M 223.5,97.5 C 232.937,107.438 242.604,117.272 252.5,127C 250.503,129.492 249.503,132.325 249.5,135.5C 232.923,135.825 216.423,135.492 200,134.5C 199.235,131.804 198.068,129.304 196.5,127C 205.706,117.296 214.706,107.463 223.5,97.5 Z M 68.5,127.5 C 68.56,126.957 68.8933,126.624 69.5,126.5C 78.6736,128.564 87.6736,131.064 96.5,134C 93.2916,138.247 90.4583,142.747 88,147.5C 81.2699,140.938 74.7699,134.271 68.5,127.5 Z M 378.5,126.5 C 380.028,126.517 380.528,127.184 380,128.5C 373.634,134.531 367.634,140.864 362,147.5C 358.348,143.233 355.681,138.567 354,133.5C 362.278,131.225 370.445,128.892 378.5,126.5 Z M 112.5,137.5 C 121.167,139.5 129.833,141.5 138.5,143.5C 138.591,147.956 139.091,152.29 140,156.5C 131.667,163.167 123.333,169.833 115,176.5C 110.018,170.684 104.851,165.017 99.5,159.5C 103.888,152.132 108.221,144.799 112.5,137.5 Z M 333.5,137.5 C 334.822,137.33 335.989,137.663 337,138.5C 341.167,145.5 345.333,152.5 349.5,159.5C 344.887,165.616 339.72,171.282 334,176.5C 325.552,169.37 317.052,162.37 308.5,155.5C 309.822,151.72 310.822,147.887 311.5,144C 318.94,141.811 326.273,139.645 333.5,137.5 Z M 200.5,150.5 C 216.833,150.5 233.167,150.5 249.5,150.5C 249.503,153.675 250.503,156.508 252.5,159C 242.97,168.196 233.803,177.696 225,187.5C 215.5,178 206,168.5 196.5,159C 198.249,156.337 199.582,153.503 200.5,150.5 Z M 150.5,168.5 C 161.6,175.605 173.1,176.272 185,170.5C 193.667,179.167 202.333,187.833 211,196.5C 211.982,197.759 212.315,199.092 212,200.5C 203.136,209.03 194.636,217.863 186.5,227C 178.047,225.027 169.381,224.027 160.5,224C 149.167,212 137.833,200 126.5,188C 134.979,182.015 142.979,175.515 150.5,168.5 Z M 297.5,168.5 C 306.025,174.929 314.358,181.595 322.5,188.5C 311.183,200.984 299.683,213.317 288,225.5C 285.254,224.857 282.421,224.524 279.5,224.5C 273.922,224.433 268.589,225.266 263.5,227C 254.667,218.167 245.833,209.333 237,200.5C 244.574,189.905 253.408,180.072 263.5,171C 272.931,175.064 282.597,175.397 292.5,172C 294.584,171.303 296.251,170.136 297.5,168.5 Z M 89.5,174.5 C 90.2389,174.369 90.9056,174.536 91.5,175C 94.9336,179.19 98.6002,183.19 102.5,187C 89.8769,196.621 77.5436,206.621 65.5,217C 64.8333,217.667 64.1667,217.667 63.5,217C 72.5654,203.028 81.232,188.861 89.5,174.5 Z M 384.5,216.5 C 371.728,206.906 359.061,197.072 346.5,187C 350.71,182.958 354.71,178.792 358.5,174.5C 367.69,188.221 376.357,202.221 384.5,216.5 Z M 113.5,198.5 C 124.467,209.635 135.3,220.968 146,232.5C 143.363,237.126 141.196,242.126 139.5,247.5C 113.167,247.5 86.8333,247.5 60.5,247.5C 60.5792,246.07 60.2458,244.736 59.5,243.5C 60.6477,241.851 61.981,240.351 63.5,239C 80.3551,225.636 97.0218,212.136 113.5,198.5 Z M 334.5,199.5 C 335.552,199.351 336.552,199.517 337.5,200C 354.5,213.833 371.5,227.667 388.5,241.5C 389.231,243.401 389.231,245.401 388.5,247.5C 362.167,247.5 335.833,247.5 309.5,247.5C 309.313,245.436 308.813,243.436 308,241.5C 305.999,238.48 304.332,235.48 303,232.5C 314.069,221.934 324.569,210.934 334.5,199.5 Z M 223.5,211.5 C 233.413,219.909 242.913,228.909 252,238.5C 251.224,241.423 250.391,244.423 249.5,247.5C 232.923,247.825 216.423,247.492 200,246.5C 198.686,243.911 198.019,241.244 198,238.5C 206.339,229.329 214.839,220.329 223.5,211.5 Z M 60.5,263.5 C 86.8333,263.5 113.167,263.5 139.5,263.5C 140.391,266.577 141.224,269.577 142,272.5C 130.988,284.345 119.821,296.011 108.5,307.5C 91.5613,294.893 75.228,281.56 59.5,267.5C 60.2458,266.264 60.5792,264.93 60.5,263.5 Z M 200.5,263.5 C 216.833,263.5 233.167,263.5 249.5,263.5C 250.391,266.577 251.224,269.577 252,272.5C 242.986,281.681 233.819,290.681 224.5,299.5C 215.151,290.984 206.317,281.984 198,272.5C 198.209,269.39 199.042,266.39 200.5,263.5 Z M 309.5,263.5 C 335.833,263.5 362.167,263.5 388.5,263.5C 389.231,265.599 389.231,267.599 388.5,269.5C 372.8,282.37 356.967,295.037 341,307.5C 329.204,296.036 317.704,284.203 306.5,272C 308.196,269.413 309.196,266.579 309.5,263.5 Z M 153.5,283.5 C 158.569,285.741 163.903,286.741 169.5,286.5C 175.351,286.368 181.018,285.535 186.5,284C 194.636,293.137 203.136,301.97 212,310.5C 212.315,311.908 211.982,313.241 211,314.5C 202.333,323.167 193.667,331.833 185,340.5C 173.262,334.701 161.929,335.368 151,342.5C 140.875,334.71 131.042,326.544 121.5,318C 132.372,306.63 143.039,295.13 153.5,283.5 Z M 263.5,283.5 C 268.569,285.741 273.903,286.741 279.5,286.5C 285.078,286.567 290.411,285.734 295.5,284C 306.35,295.35 317.017,306.85 327.5,318.5C 317.812,326.689 307.978,334.689 298,342.5C 292.547,338.426 286.38,336.426 279.5,336.5C 273.84,336.752 268.507,337.918 263.5,340C 253.952,330.954 244.952,321.454 236.5,311.5C 245.521,302.146 254.521,292.813 263.5,283.5 Z M 63.5,294.5 C 63.8966,293.475 64.5632,293.308 65.5,294C 76.1667,302.667 86.8333,311.333 97.5,320C 94,323.5 90.5,327 87,330.5C 79.3916,318.264 71.5583,306.264 63.5,294.5 Z M 384.5,294.5 C 377.774,306.277 370.774,317.944 363.5,329.5C 362.998,330.521 362.332,330.688 361.5,330C 358.667,327.167 355.833,324.333 353,321.5C 352.333,320.833 352.333,320.167 353,319.5C 363.394,310.929 373.894,302.596 384.5,294.5 Z M 224.5,323.5 C 233.604,333.105 242.937,342.605 252.5,352C 250.503,354.492 249.503,357.325 249.5,360.5C 232.923,360.825 216.423,360.492 200,359.5C 199.235,356.804 198.068,354.304 196.5,352C 206.036,342.632 215.369,333.132 224.5,323.5 Z M 109.5,330.5 C 119.791,338.286 129.958,346.286 140,354.5C 139.091,358.71 138.591,363.044 138.5,367.5C 130.29,369.261 122.123,371.261 114,373.5C 107.412,364.662 101.579,355.329 96.5,345.5C 100.452,340.212 104.785,335.212 109.5,330.5 Z M 338.5,330.5 C 343.812,335.146 348.812,340.146 353.5,345.5C 347.84,355.296 341.674,364.63 335,373.5C 327.089,371.564 319.256,369.398 311.5,367C 310.569,362.794 309.736,358.627 309,354.5C 319.022,346.636 328.855,338.636 338.5,330.5 Z M 83.5,357.5 C 87.6859,364.021 92.0192,370.521 96.5,377C 85.3326,380.371 73.9992,383.371 62.5,386C 60.8333,386.667 59.1667,386.667 57.5,386C 66.3731,376.63 75.0398,367.13 83.5,357.5 Z M 364.5,357.5 C 373.104,366.605 381.937,375.605 391,384.5C 391.667,385.5 391.667,386.5 391,387.5C 378.667,384.167 366.333,380.833 354,377.5C 357.186,370.8 360.686,364.134 364.5,357.5 Z M 200.5,375.5 C 216.833,375.5 233.167,375.5 249.5,375.5C 249.503,378.675 250.503,381.508 252.5,384C 242.97,393.196 233.803,402.696 225,412.5C 215.5,403 206,393.5 196.5,384C 198.249,381.337 199.582,378.503 200.5,375.5 Z M 138.5,383.5 C 139.873,383.343 141.207,383.51 142.5,384C 153.478,399.454 167.645,403.287 185,395.5C 193.333,403.833 201.667,412.167 210,420.5C 211.289,422.055 211.956,423.721 212,425.5C 203.136,434.03 194.636,442.863 186.5,452C 181.018,450.465 175.351,449.632 169.5,449.5C 166.579,449.524 163.746,449.857 161,450.5C 147.916,430.001 135.083,409.334 122.5,388.5C 127.94,386.813 133.274,385.146 138.5,383.5 Z M 306.5,383.5 C 313.554,384.678 320.554,386.178 327.5,388C 314.708,409.087 301.542,429.92 288,450.5C 285.254,449.857 282.421,449.524 279.5,449.5C 273.922,449.433 268.589,450.266 263.5,452C 254.667,443.167 245.833,434.333 237,425.5C 244.574,414.905 253.408,405.072 263.5,396C 268.683,398.038 274.183,399.205 280,399.5C 292.155,399.352 300.988,394.018 306.5,383.5 Z M 144.5,456.5 C 117.06,441.611 89.7266,426.445 62.5,411C 61.5562,408.281 61.2229,405.448 61.5,402.5C 76.1521,399.002 90.8187,395.835 105.5,393C 119.149,413.805 132.149,434.971 144.5,456.5 Z M 304.5,456.5 C 317.248,435.236 330.248,414.069 343.5,393C 358.18,395.835 372.846,399.001 387.5,402.5C 387.232,405.119 387.565,407.619 388.5,410C 360.607,425.778 332.607,441.278 304.5,456.5 Z M 223.5,436.5 C 233.413,444.909 242.913,453.909 252,463.5C 251.224,466.423 250.391,469.423 249.5,472.5C 232.923,472.825 216.423,472.492 200,471.5C 198.686,468.911 198.019,466.244 198,463.5C 206.339,454.329 214.839,445.329 223.5,436.5 Z"/></g>
<g><path style="opacity:0.995" fill="#c4ebf9" d="M 160.5,8.5 C 161.219,10.0913 162.219,11.5913 163.5,13C 167.768,14.183 172.101,15.183 176.5,16C 183.804,20.1079 186.637,26.2746 185,34.5C 179.707,46.8945 171.207,49.7278 159.5,43C 153.901,36.8204 152.067,29.6537 154,21.5C 152.634,19.6383 151.134,17.9717 149.5,16.5C 151.963,14.5389 154.297,12.3722 156.5,10C 157.745,9.20858 159.078,8.70858 160.5,8.5 Z"/></g>
<g><path style="opacity:1" fill="#f9cc59" d="M 274.5,14.5 C 289.314,13.8129 296.147,20.8129 295,35.5C 289.638,46.4313 281.472,49.2646 270.5,44C 260.083,32.5007 261.416,22.6674 274.5,14.5 Z"/></g>
<g><path style="opacity:1" fill="#f87d84" d="M 26.5,92.5 C 40.854,92.3504 47.354,99.3504 46,113.5C 40.6382,124.431 32.4716,127.265 21.5,122C 12.5361,113.66 12.2027,104.993 20.5,96C 22.7274,95.059 24.7274,93.8923 26.5,92.5 Z"/></g>
<g><path style="opacity:1" fill="#6cd29f" d="M 414.5,92.5 C 430.2,92.6873 436.367,100.354 433,115.5C 428.806,123.35 422.306,126.184 413.5,124C 401.443,117.189 399.443,108.189 407.5,97C 409.898,95.4758 412.231,93.9758 414.5,92.5 Z"/></g>
<g><path style="opacity:1" fill="#c4ebf9" d="M 163.5,127.5 C 180.341,125.834 187.174,133.167 184,149.5C 179.652,157.915 172.819,160.748 163.5,158C 150.202,147.8 150.202,137.633 163.5,127.5 Z"/></g>
<g><path style="opacity:1" fill="#fbcd59" d="M 273.5,127.5 C 290.31,125.804 297.143,133.137 294,149.5C 289.53,157.557 282.697,160.39 273.5,158C 262.936,151.48 260.936,142.98 267.5,132.5C 269.544,130.781 271.544,129.114 273.5,127.5 Z"/></g>
<g><path style="opacity:1" fill="#f9cc58" d="M 274.5,239.5 C 289.314,238.813 296.147,245.813 295,260.5C 289.662,271.417 281.495,274.25 270.5,269C 260.389,257.61 261.722,247.777 274.5,239.5 Z"/></g>
<g><path style="opacity:1" fill="#6cd29f" d="M 413.5,239.5 C 427.824,238.658 434.657,245.325 434,259.5C 429.873,270.146 422.373,273.646 411.5,270C 399.012,258.927 399.679,248.76 413.5,239.5 Z"/></g>
<g><path style="opacity:1" fill="#f87d84" d="M 25.5,239.5 C 41.6784,239.168 48.1784,246.834 45,262.5C 39.0392,271.283 31.2058,273.449 21.5,269C 11.0827,257.501 12.4161,247.667 25.5,239.5 Z"/></g>
<g><path style="opacity:1" fill="#c4eaf9" d="M 164.5,239.5 C 178.824,238.658 185.657,245.325 185,259.5C 180.849,270.158 173.349,273.658 162.5,270C 154.63,264.723 152.13,257.556 155,248.5C 157.406,244.592 160.572,241.592 164.5,239.5 Z"/></g>
<g><path style="opacity:1" fill="#c5ebfa" d="M 163.5,352.5 C 178.388,350.483 185.554,356.817 185,371.5C 181.548,381.896 174.382,385.729 163.5,383C 150.202,372.8 150.202,362.633 163.5,352.5 Z"/></g>
<g><path style="opacity:1" fill="#fbcd59" d="M 273.5,352.5 C 289.971,351.131 296.804,358.465 294,374.5C 289.53,382.557 282.697,385.39 273.5,383C 260.311,372.918 260.311,362.751 273.5,352.5 Z"/></g>
<g><path style="opacity:1" fill="#f87d84" d="M 25.5,386.5 C 39.3362,385.508 46.1695,391.841 46,405.5C 43.0268,415.074 36.5268,419.241 26.5,418C 15.4608,412.882 12.2941,404.715 17,393.5C 19.4412,390.546 22.2745,388.213 25.5,386.5 Z"/></g>
<g><path style="opacity:1" fill="#6cd29f" d="M 413.5,386.5 C 428.177,385.345 435.01,392.011 434,406.5C 430.501,415.336 424.001,419.169 414.5,418C 403.468,412.907 400.301,404.74 405,393.5C 407.441,390.546 410.275,388.213 413.5,386.5 Z"/></g>
<g><path style="opacity:1" fill="#c3eaf8" d="M 164.5,464.5 C 179.314,463.813 186.147,470.813 185,485.5C 180.321,495.424 172.821,498.591 162.5,495C 154.63,489.723 152.13,482.556 155,473.5C 157.406,469.592 160.572,466.592 164.5,464.5 Z"/></g>
<g><path style="opacity:0.995" fill="#facd59" d="M 300.5,492.5 C 298.108,497.225 294.441,500.558 289.5,502.5C 288.399,501.152 287.399,499.652 286.5,498C 281.868,496.928 277.201,495.928 272.5,495C 265.447,490.39 262.614,483.89 264,475.5C 269.846,463.957 278.346,461.457 289.5,468C 294.792,473.723 296.958,480.556 296,488.5C 297.397,490.07 298.897,491.404 300.5,492.5 Z"/></g>
</svg>
