<?xml version="1.0" standalone="no"?>
<!DOCTYPE svg PUBLIC "-//W3C//DTD SVG 20010904//EN"
 "http://www.w3.org/TR/2001/REC-SVG-20010904/DTD/svg10.dtd">
<svg version="1.0" xmlns="http://www.w3.org/2000/svg"
 width="512.000000pt" height="512.000000pt" viewBox="0 0 512.000000 512.000000"
 preserveAspectRatio="xMidYMid meet">

<g transform="translate(0.000000,512.000000) scale(0.100000,-0.100000)"
fill="#000000" stroke="none">
<path d="M3235 5108 c-48 -17 -93 -56 -118 -101 -21 -41 -22 -54 -27 -389 l-5
-347 -249 -227 c-264 -241 -285 -268 -286 -352 0 -79 47 -155 120 -192 19 -9
168 -62 332 -116 l296 -98 138 -305 c153 -336 169 -360 256 -386 90 -26 173 3
235 84 21 26 112 150 203 274 160 219 166 226 205 231 22 4 173 21 336 40 322
37 356 46 402 108 47 64 59 139 32 205 -16 39 -147 224 -179 254 -25 24 -88
25 -121 3 -31 -20 -49 -73 -36 -107 5 -14 42 -69 80 -123 39 -54 68 -101 63
-105 -4 -4 -158 -23 -342 -44 -184 -20 -348 -42 -364 -49 -20 -8 -92 -97 -235
-291 -113 -153 -211 -280 -217 -282 -6 -2 -75 139 -154 314 -79 174 -151 324
-161 334 -9 9 -168 67 -353 129 -185 61 -336 116 -334 120 2 4 118 113 258
241 140 129 260 245 267 259 10 19 13 113 13 372 0 191 4 349 8 352 5 3 146
-74 315 -170 178 -101 318 -174 333 -174 14 0 174 47 356 105 182 58 333 103
335 101 3 -2 -7 -62 -22 -134 -28 -142 -26 -164 21 -201 15 -11 38 -21 53 -21
33 0 87 33 95 57 18 59 56 261 56 296 -1 117 -111 218 -224 205 -22 -3 -179
-49 -348 -102 l-307 -98 -275 157 c-152 86 -291 162 -311 170 -39 17 -97 18
-140 3z"/>
<path d="M606 5070 c-16 -5 -44 -23 -61 -40 -28 -27 -41 -59 -85 -204 l-52
-173 -160 -79 c-178 -88 -207 -113 -216 -189 -9 -85 13 -113 177 -227 80 -55
148 -102 150 -104 2 -2 16 -84 31 -183 34 -219 47 -244 144 -272 59 -17 94 0
245 114 l145 110 159 -28 c205 -35 247 -32 298 23 63 67 62 89 -8 292 l-61
176 81 149 c63 117 81 161 84 200 5 60 -18 109 -67 143 -31 21 -42 22 -224 22
l-191 0 -130 130 c-148 149 -177 164 -259 140z m324 -471 c14 0 92 0 173 1
l149 1 -79 -151 -78 -151 54 -155 c29 -85 52 -157 49 -159 -2 -2 -71 7 -153
21 -82 14 -159 23 -171 20 -12 -3 -79 -49 -148 -101 -69 -53 -126 -94 -126
-93 0 2 -11 74 -24 161 -17 116 -29 164 -42 179 -11 11 -72 56 -136 100 -65
45 -118 84 -118 87 0 4 65 39 144 78 l144 72 20 53 c11 29 34 104 53 166 l33
113 115 -121 c86 -89 122 -121 141 -121z"/>
<path d="M4539 4152 c-28 -25 -34 -37 -34 -72 0 -35 6 -47 34 -72 29 -26 39
-30 75 -25 116 16 116 178 0 194 -36 5 -46 1 -75 -25z"/>
<path d="M2055 3673 c-51 -13 -557 -397 -592 -449 -47 -72 52 -174 129 -133
11 6 79 57 152 113 72 56 195 148 272 204 153 110 174 136 158 194 -14 47 -72
82 -119 71z"/>
<path d="M2792 3040 c-53 -22 -427 -288 -637 -454 -298 -234 -741 -634 -871
-784 -66 -77 -72 -116 -25 -163 23 -23 38 -29 72 -29 41 0 46 4 228 183 378
372 735 666 1191 981 85 59 161 119 168 133 40 74 -48 166 -126 133z"/>
<path d="M1113 2933 c-48 -27 -341 -307 -560 -536 -205 -214 -219 -236 -191
-294 18 -39 77 -67 113 -53 15 6 141 126 280 268 139 141 305 304 368 361 64
57 121 117 128 133 33 81 -61 163 -138 121z"/>
<path d="M2978 1966 c-60 -31 -441 -335 -552 -439 -30 -29 -36 -41 -36 -75 0
-55 32 -92 85 -98 47 -6 46 -7 231 149 71 60 189 154 261 210 150 114 166 137
139 202 -11 25 -26 40 -50 50 -43 18 -44 18 -78 1z"/>
<path d="M4360 1883 c-8 -3 -82 -42 -163 -86 l-148 -80 -167 57 c-92 31 -180
56 -195 56 -69 0 -140 -59 -153 -127 -6 -30 22 -221 52 -358 3 -14 -28 -64
-100 -162 -111 -150 -129 -189 -116 -249 21 -93 66 -117 275 -144 88 -11 165
-22 171 -25 7 -2 54 -63 105 -137 52 -73 104 -143 118 -156 52 -48 144 -49
204 -2 14 11 59 89 105 184 52 106 87 166 99 169 10 3 85 27 168 52 128 40
155 52 186 84 42 42 55 92 39 150 -8 31 -38 65 -144 169 l-135 129 6 166 c7
192 -3 238 -63 284 -35 26 -110 40 -144 26z m6 -394 l-1 -171 122 -118 121
-117 -151 -47 c-84 -26 -160 -55 -170 -64 -9 -10 -48 -81 -85 -157 l-68 -139
-93 131 c-59 84 -102 135 -119 142 -15 6 -81 17 -147 26 -200 26 -189 8 -85
146 50 65 95 131 100 145 8 20 4 61 -15 168 -15 78 -28 149 -31 158 -4 14 22
8 143 -33 105 -36 158 -49 183 -45 19 2 94 36 165 75 72 39 130 71 131 71 0 0
0 -77 0 -171z"/>
<path d="M815 1264 c-54 -27 -354 -425 -590 -782 -179 -272 -225 -350 -225
-378 0 -55 47 -104 99 -104 46 0 72 25 142 139 176 283 417 626 606 864 52 66
99 132 104 147 15 42 -11 97 -55 115 -43 18 -44 18 -81 -1z"/>
<path d="M2054 1158 c-42 -11 -292 -277 -509 -543 -162 -198 -185 -232 -185
-277 0 -68 68 -114 130 -88 18 8 69 62 134 144 121 153 304 366 415 481 123
128 141 152 141 190 0 39 -38 90 -72 97 -13 2 -37 1 -54 -4z"/>
</g>
</svg>
