<?xml version="1.0" encoding="UTF-8"?>
<!DOCTYPE svg PUBLIC "-//W3C//DTD SVG 1.1//EN" "http://www.w3.org/Graphics/SVG/1.1/DTD/svg11.dtd">
<svg xmlns="http://www.w3.org/2000/svg" version="1.1" width="512px" height="512px" style="shape-rendering:geometricPrecision; text-rendering:geometricPrecision; image-rendering:optimizeQuality; fill-rule:evenodd; clip-rule:evenodd" xmlns:xlink="http://www.w3.org/1999/xlink">
<g><path style="opacity:0.957" fill="#000000" d="M 196.5,224.5 C 195.543,228.452 193.209,231.119 189.5,232.5C 187.236,233.219 184.903,233.552 182.5,233.5C 177.167,233.5 171.833,233.5 166.5,233.5C 166.5,288.5 166.5,343.5 166.5,398.5C 211.167,398.5 255.833,398.5 300.5,398.5C 304.888,399.891 306.888,402.891 306.5,407.5C 305.797,409.716 304.464,411.549 302.5,413C 221.167,413.5 139.834,413.667 58.5,413.5C 58.6666,430.17 58.4999,446.837 58,463.5C 51.6048,469.421 46.6048,468.421 43,460.5C 42.5001,444.837 42.3334,429.17 42.5,413.5C 29.4957,413.667 16.4957,413.5 3.5,413C 1.97331,411.968 0.639972,410.801 -0.5,409.5C -0.5,406.833 -0.5,404.167 -0.5,401.5C 1.01027,400.164 2.67694,398.997 4.5,398C 17.1623,397.5 29.8289,397.333 42.5,397.5C 42.6667,279.833 42.5,162.166 42,44.5C 32.1667,54.3333 22.3333,64.1667 12.5,74C 2.66667,76.1667 -1.16667,72.3333 1,62.5C 16.1667,47.3333 31.3333,32.1667 46.5,17C 49.9643,16.1834 53.2976,16.5167 56.5,18C 71,32.5 85.5,47 100,61.5C 103.66,71.6797 100.16,75.8463 89.5,74C 79.3333,63.8333 69.1667,53.6667 59,43.5C 58.1668,74.8387 58.3334,106.172 59.5,137.5C 67.7921,140.978 75.4588,145.478 82.5,151C 95.8091,164.131 108.309,177.964 120,192.5C 138.986,214.216 162.819,222.716 191.5,218C 194.495,219.164 196.161,221.331 196.5,224.5 Z"/></g>
<g><path style="opacity:0.927" fill="#000000" d="M 199.5,41.5 C 203.182,41.3347 206.848,41.5014 210.5,42C 215.224,44.4353 216.724,48.2686 215,53.5C 212.409,57.0482 208.909,58.3815 204.5,57.5C 204.5,58.8333 204.5,60.1667 204.5,61.5C 210.015,61.349 213.015,64.0157 213.5,69.5C 213.001,75.0001 210.001,77.6667 204.5,77.5C 204.667,88.8382 204.5,100.172 204,111.5C 201.045,115.277 197.212,116.443 192.5,115C 190.951,113.786 189.785,112.286 189,110.5C 188.832,99.4849 188.332,88.4849 187.5,77.5C 179.389,72.0115 179.555,66.6782 188,61.5C 187.004,51.8006 190.838,45.1339 199.5,41.5 Z"/></g>
<g><path style="opacity:0.913" fill="#000000" d="M 238.5,47.5 C 244.53,47.0079 248.197,49.6745 249.5,55.5C 244.352,71.1498 244.352,86.8164 249.5,102.5C 246.227,111.254 241.061,112.587 234,106.5C 228.101,88.1568 228.101,69.8234 234,51.5C 235.397,49.9297 236.897,48.5964 238.5,47.5 Z"/></g>
<g><path style="opacity:0.922" fill="#000000" d="M 340.5,47.5 C 345.421,47.0429 348.921,49.0429 351,53.5C 355.558,70.4791 355.558,87.4791 351,104.5C 346.814,111.538 341.814,112.205 336,106.5C 335.833,105 335.667,103.5 335.5,102C 336.91,94.0535 337.91,86.0535 338.5,78C 337.966,70.5981 336.966,63.2648 335.5,56C 335.308,52.0348 336.975,49.2015 340.5,47.5 Z"/></g>
<g><path style="opacity:0.918" fill="#000000" d="M 274.5,51.5 C 277.649,51.2114 280.649,51.7114 283.5,53C 286.045,56.5899 288.712,60.0899 291.5,63.5C 294.991,59.8398 298.324,56.0065 301.5,52C 310.166,50.3356 314,53.8356 313,62.5C 309.5,67.5 306,72.5 302.5,77.5C 306.474,83.3072 310.64,88.9739 315,94.5C 317.167,104.333 313.333,108.167 303.5,106C 299.286,101.454 295.453,96.6212 292,91.5C 288.31,95.6886 284.81,100.022 281.5,104.5C 271.915,108.087 267.748,104.754 269,94.5C 273.167,88.8333 277.333,83.1667 281.5,77.5C 277.085,72.5851 273.252,67.2518 270,61.5C 269.296,57.0919 270.796,53.7585 274.5,51.5 Z"/></g>
<g><path style="opacity:0.961" fill="#010100" d="M 464.5,233.5 C 439.904,234.968 418.904,226.968 401.5,209.5C 394.597,202.02 387.931,194.354 381.5,186.5C 381.44,185.957 381.107,185.624 380.5,185.5C 379.168,256.332 379.168,326.999 380.5,397.5C 408.5,398.833 436.5,398.833 464.5,397.5C 470.842,397.666 477.175,397.5 483.5,397C 477.298,390.631 470.965,384.464 464.5,378.5C 461.94,374.43 458.773,370.764 455,367.5C 452.277,359.043 455.444,355.043 464.5,355.5C 480.83,370.163 496.496,385.496 511.5,401.5C 511.5,404.167 511.5,406.833 511.5,409.5C 497.062,424.438 482.396,439.272 467.5,454C 462.506,457.666 458.006,457.166 454,452.5C 453.183,449.036 453.517,445.702 455,442.5C 464.5,433 474,423.5 483.5,414C 432.5,413.667 381.5,413.333 330.5,413C 328.072,411.982 326.738,410.148 326.5,407.5C 326.148,402.864 328.148,399.864 332.5,398.5C 343.5,398.5 354.5,398.5 365.5,398.5C 365.833,321.665 365.499,244.998 364.5,168.5C 346.352,150.707 324.685,144.54 299.5,150C 289.94,153.111 281.274,157.778 273.5,164C 257.833,181 242.167,198 226.5,215C 222.755,217.65 218.755,218.15 214.5,216.5C 212.029,212.682 211.862,208.682 214,204.5C 226.049,193.451 237.049,181.451 247,168.5C 253.864,161.302 261.03,154.468 268.5,148C 300.833,127.333 333.167,127.333 365.5,148C 380.723,160.989 394.223,175.489 406,191.5C 421.491,209.995 441.324,219.495 465.5,220C 469.705,224.911 469.371,229.411 464.5,233.5 Z M 464.5,378.5 C 470.965,384.464 477.298,390.631 483.5,397C 477.175,397.5 470.842,397.666 464.5,397.5C 464.5,391.167 464.5,384.833 464.5,378.5 Z"/></g>
<g><path style="opacity:1" fill="#b2e49e" d="M 364.5,168.5 C 364.5,244.833 364.5,321.167 364.5,397.5C 353.654,397.172 342.987,397.506 332.5,398.5C 328.148,399.864 326.148,402.864 326.5,407.5C 319.833,407.5 313.167,407.5 306.5,407.5C 306.888,402.891 304.888,399.891 300.5,398.5C 263.337,397.502 226.004,397.168 188.5,397.5C 188.171,342.428 188.505,287.428 189.5,232.5C 193.209,231.119 195.543,228.452 196.5,224.5C 203.184,223.169 209.184,220.502 214.5,216.5C 218.755,218.15 222.755,217.65 226.5,215C 242.167,198 257.833,181 273.5,164C 281.274,157.778 289.94,153.111 299.5,150C 324.685,144.54 346.352,150.707 364.5,168.5 Z"/></g>
<g><path style="opacity:1" fill="#fed05a" d="M 79.5,170.5 C 79.5,246.167 79.5,321.833 79.5,397.5C 72.5,397.5 65.5,397.5 58.5,397.5C 58.3333,316.499 58.5,235.499 59,154.5C 66.879,158.552 73.7124,163.885 79.5,170.5 Z"/></g>
<g><path style="opacity:1" fill="#fee076" d="M 79.5,170.5 C 92.5999,184.498 105.6,198.665 118.5,213C 128.34,221.253 139.34,227.42 151.5,231.5C 151.5,286.833 151.5,342.167 151.5,397.5C 127.5,397.5 103.5,397.5 79.5,397.5C 79.5,321.833 79.5,246.167 79.5,170.5 Z"/></g>
<g><path style="opacity:1" fill="#302711" d="M 381.5,186.5 C 380.501,256.665 380.167,326.998 380.5,397.5C 379.168,326.999 379.168,256.332 380.5,185.5C 381.107,185.624 381.44,185.957 381.5,186.5 Z"/></g>
<g><path style="opacity:1" fill="#fed05a" d="M 381.5,186.5 C 387.931,194.354 394.597,202.02 401.5,209.5C 401.5,272.167 401.5,334.833 401.5,397.5C 394.5,397.5 387.5,397.5 380.5,397.5C 380.167,326.998 380.501,256.665 381.5,186.5 Z"/></g>
<g><path style="opacity:0.999" fill="#fddf76" d="M 401.5,209.5 C 418.904,226.968 439.904,234.968 464.5,233.5C 464.5,274.167 464.5,314.833 464.5,355.5C 455.444,355.043 452.277,359.043 455,367.5C 458.773,370.764 461.94,374.43 464.5,378.5C 464.5,384.833 464.5,391.167 464.5,397.5C 436.5,398.833 408.5,398.833 380.5,397.5C 387.5,397.5 394.5,397.5 401.5,397.5C 401.5,334.833 401.5,272.167 401.5,209.5 Z"/></g>
<g><path style="opacity:1" fill="#95d6a3" d="M 189.5,232.5 C 188.505,287.428 188.171,342.428 188.5,397.5C 181.5,397.5 174.5,397.5 167.5,397.5C 167.5,343.167 167.5,288.833 167.5,234.5C 172.695,234.821 177.695,234.487 182.5,233.5C 184.903,233.552 187.236,233.219 189.5,232.5 Z"/></g>
<g><path style="opacity:1" fill="#567759" d="M 182.5,233.5 C 177.695,234.487 172.695,234.821 167.5,234.5C 167.5,288.833 167.5,343.167 167.5,397.5C 174.5,397.5 181.5,397.5 188.5,397.5C 226.004,397.168 263.337,397.502 300.5,398.5C 255.833,398.5 211.167,398.5 166.5,398.5C 166.5,343.5 166.5,288.5 166.5,233.5C 171.833,233.5 177.167,233.5 182.5,233.5 Z"/></g>
<g><path style="opacity:1" fill="#040604" d="M 260.5,267.5 C 270.516,266.434 279.016,269.434 286,276.5C 286.671,284.159 283.171,287.326 275.5,286C 271.87,282.998 267.87,282.165 263.5,283.5C 268.945,285.722 274.278,288.222 279.5,291C 288.908,300.266 288.575,309.266 278.5,318C 266.243,324.133 255.743,321.966 247,311.5C 245.178,304.001 248.011,300.501 255.5,301C 258.788,303.301 262.288,305.134 266,306.5C 268.034,306.568 269.534,305.734 270.5,304C 265.444,300.969 260.11,298.302 254.5,296C 247.989,289.749 246.823,282.582 251,274.5C 253.79,271.535 256.957,269.202 260.5,267.5 Z"/></g>
<g><path style="opacity:1" fill="#746534" d="M 151.5,231.5 C 152.499,286.998 152.832,342.664 152.5,398.5C 120.996,398.832 89.6622,398.498 58.5,397.5C 65.5,397.5 72.5,397.5 79.5,397.5C 103.5,397.5 127.5,397.5 151.5,397.5C 151.5,342.167 151.5,286.833 151.5,231.5 Z"/></g>
<g><path style="opacity:1" fill="#68845c" d="M 364.5,168.5 C 365.499,244.998 365.833,321.665 365.5,398.5C 354.5,398.5 343.5,398.5 332.5,398.5C 342.987,397.506 353.654,397.172 364.5,397.5C 364.5,321.167 364.5,244.833 364.5,168.5 Z"/></g>
<g><path style="opacity:0.937" fill="#000000" d="M 350.5,420.5 C 355.46,420.06 358.96,422.06 361,426.5C 361.499,431.489 361.666,436.489 361.5,441.5C 383.799,436.47 396.799,445.137 400.5,467.5C 397.68,487.918 386.014,496.751 365.5,494C 363.481,493.55 361.648,492.717 360,491.5C 355.998,495.122 351.665,495.456 347,492.5C 345.355,469.922 345.022,447.255 346,424.5C 347.397,422.93 348.897,421.596 350.5,420.5 Z M 372.5,455.5 C 379.472,456.472 383.472,460.472 384.5,467.5C 381.995,477.253 375.995,480.42 366.5,477C 358.384,466.947 360.384,459.78 372.5,455.5 Z"/></g>
<g><path style="opacity:0.941" fill="#000000" d="M 163.5,439.5 C 165.857,439.337 168.19,439.503 170.5,440C 172.333,440.5 173.5,441.667 174,443.5C 174.97,459.925 174.636,476.259 173,492.5C 167.72,495.674 163.053,495.008 159,490.5C 141.54,495.604 129.873,489.604 124,472.5C 122.134,453.885 130.467,443.552 149,441.5C 152.289,441.614 155.456,442.281 158.5,443.5C 160.21,442.113 161.877,440.779 163.5,439.5 Z M 146.5,457.5 C 157.102,458.577 160.269,463.91 156,473.5C 149.101,478.255 143.768,476.922 140,469.5C 139.339,463.989 141.506,459.989 146.5,457.5 Z"/></g>
</svg>
