<?xml version="1.0" encoding="UTF-8"?>
<!DOCTYPE svg PUBLIC "-//W3C//DTD SVG 1.1//EN" "http://www.w3.org/Graphics/SVG/1.1/DTD/svg11.dtd">
<svg xmlns="http://www.w3.org/2000/svg" version="1.1" width="512px" height="512px" style="shape-rendering:geometricPrecision; text-rendering:geometricPrecision; image-rendering:optimizeQuality; fill-rule:evenodd; clip-rule:evenodd" xmlns:xlink="http://www.w3.org/1999/xlink">
<g><path style="opacity:0.968" fill="#010100" d="M 323.5,-0.5 C 327.833,-0.5 332.167,-0.5 336.5,-0.5C 356.17,11.0038 376.17,22.0038 396.5,32.5C 416.252,26.6383 435.919,20.4716 455.5,14C 472.214,11.0138 481.88,17.8471 484.5,34.5C 482.731,43.8455 480.898,53.1789 479,62.5C 477.142,68.0148 473.308,70.3481 467.5,69.5C 459.966,66.7581 457.466,61.4248 460,53.5C 461.491,46.8777 462.658,40.2111 463.5,33.5C 440.179,40.4954 416.846,47.4954 393.5,54.5C 371.931,43.38 350.598,31.7133 329.5,19.5C 328.972,44.2223 328.139,68.889 327,93.5C 309.323,109.678 291.823,126.011 274.5,142.5C 296.467,150.991 318.8,158.824 341.5,166C 342.667,167.167 343.833,168.333 345,169.5C 353.274,187.048 361.274,204.715 369,222.5C 370.509,226.194 372.509,229.527 375,232.5C 389.522,213.966 403.689,195.133 417.5,176C 418.833,175.333 420.167,174.667 421.5,174C 444.896,171.495 468.229,168.662 491.5,165.5C 486.862,158.362 482.028,151.362 477,144.5C 475.607,139.061 476.774,134.394 480.5,130.5C 484.243,129.011 487.91,129.178 491.5,131C 498.833,139.81 505.499,148.977 511.5,158.5C 511.5,162.833 511.5,167.167 511.5,171.5C 509.016,178.816 504.016,183.649 496.5,186C 474.122,188.579 451.788,191.412 429.5,194.5C 416.807,211.359 404.307,228.359 392,245.5C 383.343,254.29 373.509,255.79 362.5,250C 359.781,248.403 357.614,246.237 356,243.5C 346.962,223.259 337.795,203.092 328.5,183C 306.748,175.861 285.081,168.527 263.5,161C 254.198,153.293 251.698,143.793 256,132.5C 259.465,128.033 263.298,123.867 267.5,120C 280.667,108.167 293.833,96.3333 307,84.5C 307.595,61.1646 308.261,37.8313 309,14.5C 311.351,6.98409 316.184,1.98409 323.5,-0.5 Z"/></g>
<g><path style="opacity:0.966" fill="#010100" d="M 59.5,3.5 C 64.777,2.93118 69.777,3.76451 74.5,6C 82.8333,14.3333 91.1667,22.6667 99.5,31C 111.491,30.7109 123.491,30.7109 135.5,31C 146.338,34.8407 150.171,42.3407 147,53.5C 141.578,63.3431 136.411,73.3431 131.5,83.5C 136.195,95.0458 139.862,106.879 142.5,119C 141.685,129.148 136.185,134.648 126,135.5C 114.754,133.876 103.587,131.876 92.5,129.5C 82.5865,137.58 72.2532,145.08 61.5,152C 52.0593,154.197 45.226,151.03 41,142.5C 39,130.5 37,118.5 35,106.5C 24.0554,99.5411 13.7221,91.8744 4,83.5C -0.140239,73.892 2.02643,66.0587 10.5,60C 20.5333,55.5667 30.3666,50.7333 40,45.5C 43.1311,34.4399 46.4644,23.4399 50,12.5C 52.4057,8.59151 55.5724,5.59151 59.5,3.5 Z"/></g>
<g><path style="opacity:0.999" fill="#fdce5b" d="M 467.5,69.5 C 465.579,77.4404 463.912,85.4404 462.5,93.5C 451.391,94.0794 447.891,99.4128 452,109.5C 456.264,114.015 461.097,114.682 466.5,111.5C 470.934,118.049 475.601,124.383 480.5,130.5C 476.774,134.394 475.607,139.061 477,144.5C 482.028,151.362 486.862,158.362 491.5,165.5C 468.229,168.662 444.896,171.495 421.5,174C 420.167,174.667 418.833,175.333 417.5,176C 403.689,195.133 389.522,213.966 375,232.5C 372.509,229.527 370.509,226.194 369,222.5C 361.274,204.715 353.274,187.048 345,169.5C 343.833,168.333 342.667,167.167 341.5,166C 318.8,158.824 296.467,150.991 274.5,142.5C 291.823,126.011 309.323,109.678 327,93.5C 328.139,68.889 328.972,44.2223 329.5,19.5C 350.598,31.7133 371.931,43.38 393.5,54.5C 416.846,47.4954 440.179,40.4954 463.5,33.5C 462.658,40.2111 461.491,46.8777 460,53.5C 457.466,61.4248 459.966,66.7581 467.5,69.5 Z"/></g>
<g><path style="opacity:1" fill="#fccc5a" d="M 66.5,27.5 C 74.6852,35.1856 82.6852,43.0189 90.5,51C 101.848,51.1675 113.181,51.6675 124.5,52.5C 118.852,61.9589 114.185,71.7923 110.5,82C 113.202,92.603 116.202,103.103 119.5,113.5C 108.525,111.575 97.5248,110.075 86.5,109C 77.3855,115.114 68.5522,121.614 60,128.5C 58.2389,118.503 56.5722,108.503 55,98.5C 54.3333,97.1667 53.6667,95.8333 53,94.5C 44.4311,87.7988 35.5978,81.4655 26.5,75.5C 35.4689,71.0156 44.4689,66.5156 53.5,62C 54.6667,60.8333 55.8333,59.6667 57,58.5C 60.3231,48.2058 63.4898,37.8725 66.5,27.5 Z"/></g>
<g><path style="opacity:0.948" fill="#060402" d="M 462.5,93.5 C 468.584,95.6585 471.084,99.9919 470,106.5C 469.303,108.584 468.136,110.251 466.5,111.5C 461.097,114.682 456.264,114.015 452,109.5C 447.891,99.4128 451.391,94.0794 462.5,93.5 Z"/></g>
<g><path style="opacity:0.931" fill="#000000" d="M 203.5,143.5 C 215.886,143.058 220.052,148.724 216,160.5C 196.898,174.302 178.065,188.469 159.5,203C 147.104,204.608 142.604,199.441 146,187.5C 164.425,171.722 183.592,157.056 203.5,143.5 Z"/></g>
<g><path style="opacity:0.935" fill="#000000" d="M 278.5,206.5 C 289.486,205.653 293.986,210.653 292,221.5C 291.167,222.5 290.333,223.5 289.5,224.5C 234.978,260.156 184.978,301.656 139.5,349C 130.36,353.43 124.36,350.764 121.5,341C 122.078,339.189 122.578,337.355 123,335.5C 170.015,286.284 221.848,243.284 278.5,206.5 Z"/></g>
<g><path style="opacity:0.933" fill="#000000" d="M 111.5,216.5 C 124.676,216.517 128.509,222.517 123,234.5C 97.8637,257.303 73.697,281.136 50.5,306C 37.1576,308.988 32.3243,303.822 36,290.5C 60.0669,264.599 85.2336,239.932 111.5,216.5 Z"/></g>
<g><path style="opacity:0.927" fill="#000000" d="M 297.5,313.5 C 310.644,313.445 314.477,319.445 309,331.5C 289.678,345.252 271.178,360.086 253.5,376C 244.958,378.729 239.625,375.729 237.5,367C 237.934,364.366 238.767,361.866 240,359.5C 258.777,343.543 277.944,328.21 297.5,313.5 Z"/></g>
<g><path style="opacity:0.967" fill="#010100" d="M 434.5,322.5 C 443.324,320.44 450.157,323.107 455,330.5C 456.28,344.098 456.946,357.765 457,371.5C 467.037,379.869 476.037,389.203 484,399.5C 486.246,408.501 483.413,415.334 475.5,420C 464.833,423.333 454.167,426.667 443.5,430C 437.818,440.692 432.318,451.526 427,462.5C 418.781,470.039 410.281,470.372 401.5,463.5C 394.956,454.245 388.289,445.078 381.5,436C 370.577,433.926 359.577,432.259 348.5,431C 338.608,427.725 334.442,420.891 336,410.5C 342.004,399.834 349.004,389.834 357,380.5C 355.934,368.432 354.101,356.432 351.5,344.5C 353.737,331.376 361.404,326.209 374.5,329C 384.35,332.505 394.183,336.005 404,339.5C 414.31,333.932 424.476,328.266 434.5,322.5 Z"/></g>
<g><path style="opacity:1" fill="#fccd5b" d="M 434.5,346.5 C 435.167,356.833 435.833,367.167 436.5,377.5C 436.709,378.922 437.209,380.255 438,381.5C 445.197,389.031 452.697,396.198 460.5,403C 450.094,406.135 439.761,409.469 429.5,413C 428.667,413.833 427.833,414.667 427,415.5C 422.318,424.864 417.651,434.198 413,443.5C 406.288,434.576 399.454,425.743 392.5,417C 381.589,414.659 370.589,412.826 359.5,411.5C 365.474,403.026 371.641,394.693 378,386.5C 378.083,374.827 376.583,363.327 373.5,352C 373.833,351.5 374.167,351 374.5,350.5C 385.433,355.427 396.767,358.593 408.5,360C 417.076,355.24 425.743,350.74 434.5,346.5 Z"/></g>
<g><path style="opacity:1" fill="#7e662d" d="M 434.5,346.5 C 434.56,345.957 434.893,345.624 435.5,345.5C 436.499,356.146 436.832,366.813 436.5,377.5C 435.833,367.167 435.167,356.833 434.5,346.5 Z"/></g>
<g><path style="opacity:0.935" fill="#000000" d="M 14.5,511.5 C 11.1667,511.5 7.83333,511.5 4.5,511.5C 2.83333,509.833 1.16667,508.167 -0.5,506.5C -0.5,503.167 -0.5,499.833 -0.5,496.5C 22.1359,459.685 46.9692,424.352 74,390.5C 78.8079,383.198 84.9746,381.698 92.5,386C 96.326,390.971 96.4926,396.138 93,401.5C 80.2839,417.215 67.9506,433.215 56,449.5C 41.9116,470.071 28.0783,490.738 14.5,511.5 Z"/></g>
<g><path style="opacity:0.93" fill="#000000" d="M 204.5,394.5 C 215.654,394.479 219.82,399.813 217,410.5C 193.673,434.485 171.84,459.652 151.5,486C 142.298,489.929 136.631,487.096 134.5,477.5C 134.787,474.135 135.954,471.135 138,468.5C 157.715,443.778 178.549,419.945 200.5,397C 202.066,396.392 203.4,395.558 204.5,394.5 Z"/></g>
</svg>
