<?xml version="1.0" encoding="UTF-8"?>
<!DOCTYPE svg PUBLIC "-//W3C//DTD SVG 1.1//EN" "http://www.w3.org/Graphics/SVG/1.1/DTD/svg11.dtd">
<svg xmlns="http://www.w3.org/2000/svg" version="1.1" width="512px" height="512px" style="shape-rendering:geometricPrecision; text-rendering:geometricPrecision; image-rendering:optimizeQuality; fill-rule:evenodd; clip-rule:evenodd" xmlns:xlink="http://www.w3.org/1999/xlink">
<g><path style="opacity:1" fill="#293439" d="M 234.5,132.5 C 232.167,129.5 229.5,126.833 226.5,124.5C 217.799,114.945 212.632,103.612 211,90.5C 208.985,74.5798 212.318,59.9131 221,46.5C 233.369,37.4505 244.035,39.1172 253,51.5C 255.333,59.5 257.667,67.5 260,75.5C 260.667,76.1667 261.333,76.8333 262,77.5C 270.713,74.9883 279.38,72.3217 288,69.5C 286.671,62.1757 285.004,54.8424 283,47.5C 281.844,29.3253 290.344,21.492 308.5,24C 334.981,40.0653 346.148,63.5653 342,94.5C 339.112,107.778 332.945,119.278 323.5,129C 329.084,149.166 334.751,169.333 340.5,189.5C 346.463,190.496 352.463,190.829 358.5,190.5C 363.361,170.057 368.694,149.724 374.5,129.5C 354.34,106.536 350.173,80.8697 362,52.5C 367.405,41.5298 375.239,32.6964 385.5,26C 402.391,19.4434 412.725,24.9434 416.5,42.5C 414.735,50.727 412.735,58.8937 410.5,67C 410.585,68.1074 410.919,69.1074 411.5,70C 419.683,72.5059 427.85,75.0059 436,77.5C 437.333,76.8333 438.333,75.8333 439,74.5C 440.823,68.2099 442.489,61.8765 444,55.5C 448.679,43.0414 457.513,38.5414 470.5,42C 476.792,44.9619 480.959,49.7952 483,56.5C 494.205,91.5544 484.705,119.388 454.5,140C 449.376,142.313 444.209,144.48 439,146.5C 434.854,161.101 431.021,175.767 427.5,190.5C 439.505,190.333 451.505,190.5 463.5,191C 468.299,191.896 472.299,194.063 475.5,197.5C 476.833,199.5 478.5,201.167 480.5,202.5C 483.937,205.701 486.104,209.701 487,214.5C 487.667,230.5 487.667,246.5 487,262.5C 484.324,271.68 478.824,278.68 470.5,283.5C 469.964,328.858 469.131,374.191 468,419.5C 462.215,449.226 445.381,470.06 417.5,482C 411.668,484.277 405.668,485.944 399.5,487C 303.5,487.667 207.5,487.667 111.5,487C 97.6016,484.712 85.2683,479.212 74.5,470.5C 73.4154,468.413 71.7488,467.08 69.5,466.5C 55.0274,454.151 46.194,438.485 43,419.5C 41.7029,374.195 41.0363,328.862 41,283.5C 32.3663,278.87 26.6997,271.87 24,262.5C 23.3333,246.5 23.3333,230.5 24,214.5C 24.8959,209.701 27.0626,205.701 30.5,202.5C 32.5,201.167 34.1667,199.5 35.5,197.5C 38.7118,194.058 42.7118,191.891 47.5,191C 79.5,190.667 111.5,190.333 143.5,190C 137.928,170.217 132.428,150.384 127,130.5C 118.788,116.075 111.122,101.409 104,86.5C 103.333,71.1667 103.333,55.8333 104,40.5C 105.378,35.7917 108.212,32.2917 112.5,30C 123.035,25.281 134.035,23.281 145.5,24C 148.603,25.4394 151.436,27.2728 154,29.5C 161.507,41.845 168.507,54.5117 175,67.5C 176.099,84.1468 176.765,100.813 177,117.5C 183.19,141.593 189.69,165.593 196.5,189.5C 221.493,190.666 246.493,190.833 271.5,190C 266.996,175.318 262.996,160.484 259.5,145.5C 249.864,143.517 241.531,139.183 234.5,132.5 Z"/></g>
<g><path style="opacity:1" fill="#d3d8f5" d="M 135.5,39.5 C 138.044,39.1043 140.211,39.771 142,41.5C 147.921,51.673 153.587,62.0063 159,72.5C 159.333,88.1667 159.667,103.833 160,119.5C 166.802,142.741 173.302,166.075 179.5,189.5C 173.167,190.833 166.833,190.833 160.5,189.5C 154.668,168.172 148.835,146.839 143,125.5C 135.735,111.247 128.068,97.2466 120,83.5C 119.333,70.8333 119.333,58.1667 120,45.5C 125.071,43.1136 130.238,41.1136 135.5,39.5 Z"/></g>
<g><path style="opacity:1" fill="#d3d9f4" d="M 300.5,39.5 C 308.614,42.4382 314.781,47.7715 319,55.5C 330.251,76.5651 328.584,96.5651 314,115.5C 294.513,133.356 273.013,136.19 249.5,124C 227.196,106.419 221.696,84.5859 233,58.5C 234.667,57.1667 236.333,57.1667 238,58.5C 240.311,65.7455 242.311,73.0789 244,80.5C 247.908,90.2058 255.075,94.3724 265.5,93C 274.5,90.6667 283.5,88.3333 292.5,86C 302.846,80.9866 306.679,72.8199 304,61.5C 302.401,55.2698 300.567,49.1031 298.5,43C 298.978,41.6974 299.645,40.5307 300.5,39.5 Z"/></g>
<g><path style="opacity:1" fill="#d4d9f4" d="M 394.5,39.5 C 397.261,38.9147 398.927,39.9147 399.5,42.5C 398.108,49.6297 396.275,56.6297 394,63.5C 392.356,75.3849 397.189,83.2183 408.5,87C 415.819,88.9895 423.153,90.9895 430.5,93C 442.414,95.2541 450.581,90.7541 455,79.5C 456.353,72.7538 458.02,66.0871 460,59.5C 462,56.8333 464,56.8333 466,59.5C 475.984,81.7272 472.484,101.561 455.5,119C 434.275,134.765 412.608,135.431 390.5,121C 372.529,104.41 367.695,84.5771 376,61.5C 380.557,52.7793 386.724,45.446 394.5,39.5 Z"/></g>
<g><path style="opacity:0.016" fill="#666e79" d="M 226.5,124.5 C 229.5,126.833 232.167,129.5 234.5,132.5C 230.833,130.833 228.167,128.167 226.5,124.5 Z"/></g>
<g><path style="opacity:1" fill="#3a4d57" d="M 307.5,139.5 C 308.496,139.414 309.329,139.748 310,140.5C 314.342,156.867 318.842,173.2 323.5,189.5C 311.833,190.833 300.167,190.833 288.5,189.5C 284.512,175.546 280.845,161.546 277.5,147.5C 288.356,147.621 298.356,144.954 307.5,139.5 Z"/></g>
<g><path style="opacity:1" fill="#3a4d57" d="M 388.5,139.5 C 398.919,144.471 409.919,147.304 421.5,148C 417.292,161.996 413.626,176.163 410.5,190.5C 398.833,190.5 387.167,190.5 375.5,190.5C 379.627,173.451 383.96,156.451 388.5,139.5 Z"/></g>
<g><path style="opacity:0.016" fill="#726947" d="M 475.5,197.5 C 478.167,198.167 479.833,199.833 480.5,202.5C 478.5,201.167 476.833,199.5 475.5,197.5 Z"/></g>
<g><path style="opacity:0.886" fill="#6d6344" d="M 35.5,197.5 C 34.1667,199.5 32.5,201.167 30.5,202.5C 31.1667,199.833 32.8333,198.167 35.5,197.5 Z"/></g>
<g><path style="opacity:1" fill="#fdc35b" d="M 50.5,206.5 C 187.167,206.333 323.834,206.5 460.5,207C 465.333,209.167 468.833,212.667 471,217.5C 471.667,231.167 471.667,244.833 471,258.5C 468.641,266.098 463.474,269.931 455.5,270C 322.167,270.667 188.833,270.667 55.5,270C 47.4616,269.909 42.2949,266.076 40,258.5C 39.3333,244.833 39.3333,231.167 40,217.5C 42.3566,212.645 45.8566,208.979 50.5,206.5 Z"/></g>
<g><path style="opacity:1" fill="#fc8e2b" d="M 452.5,306.5 C 394.167,306.5 335.833,306.5 277.5,306.5C 272.56,298.39 265.226,295.057 255.5,296.5C 245.613,294.77 238.28,298.103 233.5,306.5C 175.167,306.5 116.833,306.5 58.5,306.5C 58.5,299.833 58.5,293.167 58.5,286.5C 189.833,286.5 321.167,286.5 452.5,286.5C 452.5,293.167 452.5,299.833 452.5,306.5 Z"/></g>
<g><path style="opacity:1" fill="#29353a" d="M 277.5,306.5 C 277.933,309.166 278.433,311.832 279,314.5C 282.349,316.847 285.849,319.013 289.5,321C 290.5,321.667 291.5,321.667 292.5,321C 302.703,314.03 311.537,315.53 319,325.5C 321,328.167 323,330.833 325,333.5C 329.147,339.324 329.48,345.324 326,351.5C 324.039,353.928 322.206,356.428 320.5,359C 321.711,363.401 323.044,367.735 324.5,372C 337.653,376.418 341.819,385.251 337,398.5C 335.032,412.802 326.866,419.302 312.5,418C 310.372,421.13 307.872,423.963 305,426.5C 305.445,430.105 305.945,433.772 306.5,437.5C 306.458,440.259 305.958,442.925 305,445.5C 297.379,452.81 288.379,457.477 278,459.5C 274.871,459.671 272.037,458.838 269.5,457C 267.402,454.146 265.069,451.479 262.5,449C 257.467,448.171 252.467,448.338 247.5,449.5C 242.601,458.523 235.268,461.357 225.5,458C 218.066,455.205 211.566,451.038 206,445.5C 203.876,439.914 204.043,434.414 206.5,429C 204.235,425.064 201.568,421.397 198.5,418C 184.134,419.302 175.968,412.802 174,398.5C 169.172,384.95 173.505,375.95 187,371.5C 188.04,367.299 189.207,363.132 190.5,359C 188.015,355.177 185.515,351.344 183,347.5C 181.889,342.389 182.889,337.722 186,333.5C 188.333,330.5 190.667,327.5 193,324.5C 197.294,318.267 203.127,315.767 210.5,317C 213.298,318.734 216.298,319.901 219.5,320.5C 223.589,319.291 227.589,317.791 231.5,316C 232.432,312.915 233.099,309.748 233.5,306.5C 238.28,298.103 245.613,294.77 255.5,296.5C 265.226,295.057 272.56,298.39 277.5,306.5 Z"/></g>
<g><path style="opacity:1" fill="#fea04e" d="M 58.5,306.5 C 116.833,306.5 175.167,306.5 233.5,306.5C 233.099,309.748 232.432,312.915 231.5,316C 227.589,317.791 223.589,319.291 219.5,320.5C 216.298,319.901 213.298,318.734 210.5,317C 203.127,315.767 197.294,318.267 193,324.5C 190.667,327.5 188.333,330.5 186,333.5C 182.889,337.722 181.889,342.389 183,347.5C 185.515,351.344 188.015,355.177 190.5,359C 189.207,363.132 188.04,367.299 187,371.5C 173.505,375.95 169.172,384.95 174,398.5C 175.968,412.802 184.134,419.302 198.5,418C 201.568,421.397 204.235,425.064 206.5,429C 204.043,434.414 203.876,439.914 206,445.5C 211.566,451.038 218.066,455.205 225.5,458C 235.268,461.357 242.601,458.523 247.5,449.5C 252.467,448.338 257.467,448.171 262.5,449C 265.069,451.479 267.402,454.146 269.5,457C 272.037,458.838 274.871,459.671 278,459.5C 288.379,457.477 297.379,452.81 305,445.5C 305.958,442.925 306.458,440.259 306.5,437.5C 305.945,433.772 305.445,430.105 305,426.5C 307.872,423.963 310.372,421.13 312.5,418C 326.866,419.302 335.032,412.802 337,398.5C 341.819,385.251 337.653,376.418 324.5,372C 323.044,367.735 321.711,363.401 320.5,359C 322.206,356.428 324.039,353.928 326,351.5C 329.48,345.324 329.147,339.324 325,333.5C 323,330.833 321,328.167 319,325.5C 311.537,315.53 302.703,314.03 292.5,321C 291.5,321.667 290.5,321.667 289.5,321C 285.849,319.013 282.349,316.847 279,314.5C 278.433,311.832 277.933,309.166 277.5,306.5C 335.833,306.5 394.167,306.5 452.5,306.5C 452.667,342.835 452.5,379.168 452,415.5C 445.417,446.416 426.583,464.916 395.5,471C 301.833,471.667 208.167,471.667 114.5,471C 83.5241,464.358 65.0241,445.525 59,414.5C 58.5,378.502 58.3333,342.502 58.5,306.5 Z"/></g>
<g><path style="opacity:1" fill="#e8f1fb" d="M 249.5,312.5 C 253.833,312.5 258.167,312.5 262.5,312.5C 262.692,320.714 266.358,326.881 273.5,331C 278.984,333.746 284.651,335.913 290.5,337.5C 295.077,336.975 299.41,335.641 303.5,333.5C 307.553,336.32 310.053,339.986 311,344.5C 305.589,349.733 303.589,356.067 305,363.5C 305.584,375.027 310.917,383.361 321,388.5C 321.578,392.956 321.078,397.289 319.5,401.5C 311.32,400.012 304.487,402.345 299,408.5C 295.274,413.228 291.941,418.228 289,423.5C 288.391,428.323 288.724,432.99 290,437.5C 286.692,439.57 283.192,441.237 279.5,442.5C 276.339,439.509 273.005,436.675 269.5,434C 260.896,432.458 252.23,432.124 243.5,433C 239.407,434.925 236.074,437.758 233.5,441.5C 228.982,441.854 224.815,440.52 221,437.5C 223.54,430.59 222.873,423.923 219,417.5C 216.425,414.681 214.092,411.681 212,408.5C 206.408,402.691 199.575,400.358 191.5,401.5C 190.016,396.967 189.35,392.301 189.5,387.5C 197.738,385.421 202.571,380.088 204,371.5C 208.463,360.966 206.963,351.466 199.5,343C 201.298,338.903 204.131,335.737 208,333.5C 212.333,336.722 217.167,337.889 222.5,337C 231.022,334.508 238.522,330.341 245,324.5C 247.003,320.654 248.503,316.654 249.5,312.5 Z"/></g>
<g><path style="opacity:1" fill="#29353a" d="M 249.5,341.5 C 281.957,342.781 296.123,359.448 292,391.5C 280.396,416.15 261.896,423.317 236.5,413C 217.754,399.844 212.921,382.677 222,361.5C 228.526,351.132 237.693,344.465 249.5,341.5 Z"/></g>
<g><path style="opacity:1" fill="#fda04e" d="M 248.5,358.5 C 265.254,356.021 274.92,363.021 277.5,379.5C 275.423,396.73 265.756,403.896 248.5,401C 235.729,395.041 231.229,385.208 235,371.5C 238.076,365.589 242.576,361.255 248.5,358.5 Z"/></g>
<g><path style="opacity:0.902" fill="#695939" d="M 69.5,466.5 C 71.7488,467.08 73.4154,468.413 74.5,470.5C 72.2512,469.92 70.5846,468.587 69.5,466.5 Z"/></g>
</svg>
